{
	"accessors":[{
		"bufferView":0,
		"componentType":5123,
		"type":"SCALAR",
		"count":96,
		"byteOffset":0,
		"min":[0],
		"max":[95]
	},
	{
		"bufferView":1,
		"componentType":5126,
		"type":"VEC3",
		"count":96,
		"byteOffset":0,
		"min":[0.0,
		0.0,
		-0.009996471926569939],
		"max":[0.08325555175542832,
		0.06349999457597733,
		0.0000035277773804409664]
	},
	{
		"bufferView":1,
		"componentType":5126,
		"type":"VEC3",
		"count":96,
		"byteOffset":12,
		"min":[-1.0,
		-1.0,
		-1.0],
		"max":[0.7061842679977417,
		1.0,
		1.0]
	},
	{
		"bufferView":1,
		"componentType":5126,
		"type":"VEC2",
		"count":96,
		"byteOffset":24,
		"min":[0.0,
		0.0],
		"max":[1.0,
		1.0]
	}],
	"asset":{
		"version":"2.0",
		"generator":""
	},
	"scenes":[{
		"nodes":[0]
	}],
	"nodes":[{
		"name":"Extrude",
		"children":[1]
	},
	{
		"name":"arrow_left_alt.svg",
		"children":[2]
	},
	{
		"name":"Null",
		"translation":[-0.04162777587771416,
		-0.03174999728798866,
		0.0],
		"rotation":[0.0,
		0.0,
		0.0,
		-1.0],
		"scale":[1.0,
		1.0,
		1.0],
		"children":[3]
	},
	{
		"name":"Fill",
		"mesh":0
	}],
	"meshes":[{
		"name":"Fill",
		"primitives":[{
			"attributes":{
				"POSITION":1,
				"NORMAL":2,
				"TEXCOORD_0":3
			},
			"indices":0
		}]
	}],
	"bufferViews":[{
		"buffer":0,
		"byteOffset":0,
		"byteLength":192,
		"target":34963
	},
	{
		"buffer":0,
		"byteOffset":192,
		"byteLength":3072,
		"target":34962,
		"byteStride":32
	}],
	"buffers":[{
		"uri":"data:application/octet-stream;base64,",
		"byteLength":3264
	}]
}