{
	"accessors":[{
		"bufferView":0,
		"componentType":5123,
		"type":"SCALAR",
		"count":2148,
		"byteOffset":0,
		"min":[0],
		"max":[2147]
	},
	{
		"bufferView":1,
		"componentType":5126,
		"type":"VEC3",
		"count":2148,
		"byteOffset":0,
		"min":[0.0,
		0.0,
		-0.009996471926569939],
		"max":[0.06279443949460983,
		0.06279443949460983,
		0.0000035277773804409664]
	},
	{
		"bufferView":1,
		"componentType":5126,
		"type":"VEC3",
		"count":2148,
		"byteOffset":12,
		"min":[-1.0,
		-0.999998927116394,
		-1.0],
		"max":[1.0,
		0.9999979734420776,
		1.0]
	},
	{
		"bufferView":1,
		"componentType":5126,
		"type":"VEC2",
		"count":2148,
		"byteOffset":24,
		"min":[0.0,
		0.0],
		"max":[1.0,
		1.0]
	}],
	"asset":{
		"version":"2.0",
		"generator":""
	},
	"scenes":[{
		"nodes":[0]
	}],
	"nodes":[{
		"name":"neurology.svg",
		"children":[1]
	},
	{
		"name":"Null",
		"translation":[-0.031397219747304919,
		-0.031397219747304919,
		0.0],
		"rotation":[0.0,
		0.0,
		0.0,
		-1.0],
		"scale":[1.0,
		1.0,
		1.0],
		"children":[2]
	},
	{
		"name":"Fill",
		"mesh":0
	}],
	"meshes":[{
		"name":"Fill",
		"primitives":[{
			"attributes":{
				"POSITION":1,
				"NORMAL":2,
				"TEXCOORD_0":3
			},
			"indices":0
		}]
	}],
	"bufferViews":[{
		"buffer":0,
		"byteOffset":0,
		"byteLength":4296,
		"target":34963
	},
	{
		"buffer":0,
		"byteOffset":4296,
		"byteLength":68736,
		"target":34962,
		"byteStride":32
	}],
	"buffers":[{
		"uri":"data:application/octet-stream;base64,",
		"byteLength":73032
	}]
}