{
	"accessors":[{
		"bufferView":0,
		"componentType":5123,
		"type":"SCALAR",
		"count":2760,
		"byteOffset":0,
		"min":[0],
		"max":[2759]
	},
	{
		"bufferView":1,
		"componentType":5126,
		"type":"VEC3",
		"count":2760,
		"byteOffset":0,
		"min":[0.0,
		0.0,
		-0.004996472038328648],
		"max":[0.020461110398173333,
		0.017638888210058214,
		0.0000035277773804409664]
	},
	{
		"bufferView":1,
		"componentType":5126,
		"type":"VEC3",
		"count":2760,
		"byteOffset":12,
		"min":[-0.9999831914901733,
		-1.0,
		-1.0],
		"max":[0.9999924898147583,
		0.9999890327453613,
		1.0]
	},
	{
		"bufferView":1,
		"componentType":5126,
		"type":"VEC2",
		"count":2760,
		"byteOffset":24,
		"min":[0.0,
		0.0],
		"max":[1.0,
		1.0]
	}],
	"asset":{
		"version":"2.0",
		"generator":""
	},
	"scenes":[{
		"nodes":[0]
	}],
	"nodes":[{
		"name":"Extrude",
		"children":[1]
	},
	{
		"name":"chess_queen.svg",
		"children":[2]
	},
	{
		"name":"Null",
		"translation":[-0.010230555199086666,
		-0.008819444105029107,
		0.0],
		"rotation":[0.0,
		0.0,
		0.0,
		-1.0],
		"scale":[1.0,
		1.0,
		1.0],
		"children":[3]
	},
	{
		"name":"Fill",
		"mesh":0
	}],
	"meshes":[{
		"name":"Fill",
		"primitives":[{
			"attributes":{
				"POSITION":1,
				"NORMAL":2,
				"TEXCOORD_0":3
			},
			"indices":0
		}]
	}],
	"bufferViews":[{
		"buffer":0,
		"byteOffset":0,
		"byteLength":5520,
		"target":34963
	},
	{
		"buffer":0,
		"byteOffset":5520,
		"byteLength":88320,
		"target":34962,
		"byteStride":32
	}],
	"buffers":[{
		"uri":"data:application/octet-stream;base64,",
		"byteLength":93840
	}]
}