{
	"asset":{
		"generator":"Khronos glTF Blender I/O v5.0.21",
		"version":"2.0"
	},
	"extensionsUsed":[
		"KHR_materials_transmission"
	],
	"scene":0,
	"scenes":[
		{
			"name":"Scene",
			"nodes":[
				0
			]
		}
	],
	"nodes":[
		{
			"mesh":0,
			"name":"Chemestry-tube",
			"translation":[
				0.002048138529062271,
				0.0602235309779644,
				0.002069316804409027
			]
		}
	],
	"materials":[
		{
			"doubleSided":true,
			"extensions":{
				"KHR_materials_transmission":{
					"transmissionFactor":1
				}
			},
			"name":"Transparent",
			"pbrMetallicRoughness":{
				"metallicFactor":0,
				"roughnessFactor":0
			}
		},
		{
			"doubleSided":true,
			"name":"Color - Wood",
			"pbrMetallicRoughness":{
				"baseColorFactor":[
					0.5209956169128418,
					0.327778160572052,
					0.029556848108768463,
					1
				],
				"roughnessFactor":0.30000001192092896
			}
		},
		{
			"doubleSided":true,
			"emissiveFactor":[
				0.027536438778042793,
				0.010668092407286167,
				0.05287428945302963
			],
			"name":"Color - Red Liquid",
			"pbrMetallicRoughness":{
				"baseColorFactor":[
					0.07818742841482162,
					0.07818742841482162,
					0.08228271454572678,
					1
				],
				"roughnessFactor":0.5
			}
		}
	],
	"meshes":[
		{
			"name":"Circle.010",
			"primitives":[
				{
					"attributes":{
						"POSITION":0,
						"NORMAL":1,
						"TEXCOORD_0":2
					},
					"indices":3,
					"material":0
				},
				{
					"attributes":{
						"POSITION":4,
						"NORMAL":5,
						"TEXCOORD_0":6
					},
					"indices":7,
					"material":1
				},
				{
					"attributes":{
						"POSITION":8,
						"NORMAL":9,
						"TEXCOORD_0":10
					},
					"indices":11,
					"material":2
				}
			]
		}
	],
	"accessors":[
		{
			"bufferView":0,
			"componentType":5126,
			"count":12354,
			"max":[
				0.7065803408622742,
				0.7560929656028748,
				0.7065803408622742
			],
			"min":[
				-0.7065803408622742,
				-1.016771912574768,
				-0.7065803408622742
			],
			"type":"VEC3"
		},
		{
			"bufferView":1,
			"componentType":5126,
			"count":12354,
			"type":"VEC3"
		},
		{
			"bufferView":2,
			"componentType":5126,
			"count":12354,
			"type":"VEC2"
		},
		{
			"bufferView":3,
			"componentType":5123,
			"count":73728,
			"type":"SCALAR"
		},
		{
			"bufferView":4,
			"componentType":5126,
			"count":9757,
			"max":[
				0.17111407220363617,
				0.9026212692260742,
				0.5093361139297485
			],
			"min":[
				-0.17111407220363617,
				-0.7435684204101562,
				-0.1874038279056549
			],
			"type":"VEC3"
		},
		{
			"bufferView":5,
			"componentType":5126,
			"count":9757,
			"type":"VEC3"
		},
		{
			"bufferView":6,
			"componentType":5126,
			"count":9757,
			"type":"VEC2"
		},
		{
			"bufferView":7,
			"componentType":5123,
			"count":44160,
			"type":"SCALAR"
		},
		{
			"bufferView":8,
			"componentType":5126,
			"count":16158,
			"max":[
				0.6587159633636475,
				-0.14041586220264435,
				0.6587159037590027
			],
			"min":[
				-0.6587159037590027,
				-0.9888037443161011,
				-0.6587159037590027
			],
			"type":"VEC3"
		},
		{
			"bufferView":9,
			"componentType":5126,
			"count":16158,
			"type":"VEC3"
		},
		{
			"bufferView":10,
			"componentType":5126,
			"count":16158,
			"type":"VEC2"
		},
		{
			"bufferView":11,
			"componentType":5123,
			"count":70272,
			"type":"SCALAR"
		}
	],
	"bufferViews":[
		{
			"buffer":0,
			"byteLength":148248,
			"byteOffset":0,
			"target":34962
		},
		{
			"buffer":0,
			"byteLength":148248,
			"byteOffset":148248,
			"target":34962
		},
		{
			"buffer":0,
			"byteLength":98832,
			"byteOffset":296496,
			"target":34962
		},
		{
			"buffer":0,
			"byteLength":147456,
			"byteOffset":395328,
			"target":34963
		},
		{
			"buffer":0,
			"byteLength":117084,
			"byteOffset":542784,
			"target":34962
		},
		{
			"buffer":0,
			"byteLength":117084,
			"byteOffset":659868,
			"target":34962
		},
		{
			"buffer":0,
			"byteLength":78056,
			"byteOffset":776952,
			"target":34962
		},
		{
			"buffer":0,
			"byteLength":88320,
			"byteOffset":855008,
			"target":34963
		},
		{
			"buffer":0,
			"byteLength":193896,
			"byteOffset":943328,
			"target":34962
		},
		{
			"buffer":0,
			"byteLength":193896,
			"byteOffset":1137224,
			"target":34962
		},
		{
			"buffer":0,
			"byteLength":129264,
			"byteOffset":1331120,
			"target":34962
		},
		{
			"buffer":0,
			"byteLength":140544,
			"byteOffset":1460384,
			"target":34963
		}
	],
	"buffers":[
		{
			"byteLength":1600928,
			"uri":"lab.bin"
		}
	]
}
