{
	"accessors":[{
		"bufferView":0,
		"componentType":5123,
		"type":"SCALAR",
		"count":1464,
		"byteOffset":0,
		"min":[0],
		"max":[1463]
	},
	{
		"bufferView":1,
		"componentType":5126,
		"type":"VEC3",
		"count":1464,
		"byteOffset":0,
		"min":[0.0,
		0.0,
		-0.009996471926569939],
		"max":[0.04621388763189316,
		0.04586111009120941,
		0.0000035277773804409664]
	},
	{
		"bufferView":1,
		"componentType":5126,
		"type":"VEC3",
		"count":1464,
		"byteOffset":12,
		"min":[-1.0,
		-1.0,
		-1.0],
		"max":[1.0,
		1.0,
		1.0]
	},
	{
		"bufferView":1,
		"componentType":5126,
		"type":"VEC2",
		"count":1464,
		"byteOffset":24,
		"min":[0.0,
		0.0],
		"max":[1.0,
		1.0]
	}],
	"asset":{
		"version":"2.0",
		"generator":""
	},
	"scenes":[{
		"nodes":[0]
	}],
	"nodes":[{
		"name":"Extrude",
		"children":[1]
	},
	{
		"name":"settings_heart.svg",
		"children":[2]
	},
	{
		"name":"Null",
		"translation":[-0.02310694381594658,
		-0.022930555045604707,
		0.0],
		"rotation":[0.0,
		0.0,
		0.0,
		-1.0],
		"scale":[1.0,
		1.0,
		1.0],
		"children":[3]
	},
	{
		"name":"Fill",
		"mesh":0
	}],
	"meshes":[{
		"name":"Fill",
		"primitives":[{
			"attributes":{
				"POSITION":1,
				"NORMAL":2,
				"TEXCOORD_0":3
			},
			"indices":0
		}]
	}],
	"bufferViews":[{
		"buffer":0,
		"byteOffset":0,
		"byteLength":2928,
		"target":34963
	},
	{
		"buffer":0,
		"byteOffset":2928,
		"byteLength":46848,
		"target":34962,
		"byteStride":32
	}],
	"buffers":[{
		"uri":"data:application/octet-stream;base64,",
		"byteLength":49776
	}]
}