{
	"accessors":[{
		"bufferView":0,
		"componentType":5123,
		"type":"SCALAR",
		"count":108,
		"byteOffset":0,
		"min":[0],
		"max":[107]
	},
	{
		"bufferView":1,
		"componentType":5126,
		"type":"VEC3",
		"count":108,
		"byteOffset":0,
		"min":[0.0,
		0.0,
		-0.009996471926569939],
		"max":[0.057855553925037387,
		0.057855553925037387,
		0.0000035277773804409664]
	},
	{
		"bufferView":1,
		"componentType":5126,
		"type":"VEC3",
		"count":108,
		"byteOffset":12,
		"min":[-0.9578263163566589,
		-0.8132941126823425,
		-1.0],
		"max":[0.9578263163566589,
		1.0,
		1.0]
	},
	{
		"bufferView":1,
		"componentType":5126,
		"type":"VEC2",
		"count":108,
		"byteOffset":24,
		"min":[0.0,
		0.0],
		"max":[1.0,
		1.0]
	}],
	"asset":{
		"version":"2.0",
		"generator":""
	},
	"scenes":[{
		"nodes":[0]
	}],
	"nodes":[{
		"name":"Extrude",
		"children":[1]
	},
	{
		"name":"star_rate.svg",
		"children":[2]
	},
	{
		"name":"Null",
		"translation":[-0.028927776962518693,
		-0.028927776962518693,
		0.0],
		"rotation":[0.0,
		0.0,
		0.0,
		-1.0],
		"scale":[1.0,
		1.0,
		1.0],
		"children":[3]
	},
	{
		"name":"Fill",
		"mesh":0
	}],
	"meshes":[{
		"name":"Fill",
		"primitives":[{
			"attributes":{
				"POSITION":1,
				"NORMAL":2,
				"TEXCOORD_0":3
			},
			"indices":0
		}]
	}],
	"bufferViews":[{
		"buffer":0,
		"byteOffset":0,
		"byteLength":216,
		"target":34963
	},
	{
		"buffer":0,
		"byteOffset":216,
		"byteLength":3456,
		"target":34962,
		"byteStride":32
	}],
	"buffers":[{
		"uri":"data:application/octet-stream;base64,",
		"byteLength":3672
	}]
}